# AST/ASF file generated using VICON BodyLanguage
# -----------------------------------------------
:version 1.10
:name VICON
:units
  mass 1.0
  length 0.45
  angle deg
:documentation
   .ast/.asf automatically generated from VICON data using
   VICON BodyBuilder and BodyLanguage model FoxedUp or BRILLIANT.MOD
:root
   order TX TY TZ RX RY RZ
   axis XYZ
   position 0 0 0  
   orientation 0 0 0 
:bonedata
  begin
     id 1 
     name lhipjoint
     direction 0.692814 -0.645514 0.321437 
     length 2.38754 
     axis 0 0 0  XYZ
  end
  begin
     id 2 
     name lfemur
     direction 0.34202 -0.939693 0  
     length 6.41921  
     axis 0 0 20  XYZ
    dof rx ry rz
    limits (-160.0 20.0)
           (-70.0 70.0)
           (-60.0 70.0)
  end
  begin
     id 3 
     name ltibia
     direction 0.34202 -0.939693 0   
     length 6.98247   
     axis 0 0 20   XYZ
    dof rx
    limits (-10.0 170.0)
  end
  begin
     id 4 
     name lfoot
     direction 0.0947186 -0.260237 0.960888   
     length 1.83034   
     axis -90 7.62852e-016 20   XYZ
    dof rx rz
    limits (-45.0 90.0)
           (-70.0 20.0)
  end
  begin
     id 5 
     name ltoes
     direction 1.53538e-011 -4.21952e-011 1   
     length 0.920499   
     axis -90 7.62852e-016 20   XYZ
    dof rx
    limits (-90.0 20.0)
  end
  begin
     id 6 
     name rhipjoint
     direction -0.631686 -0.693949 0.345555   
     length 2.2209  
     axis 0 0 0  XYZ 
  end
  begin
     id 7 
     name rfemur
     direction -0.34202 -0.939693 0   
     length 6.49542   
     axis 0 0 -20   XYZ
    dof rx ry rz
    limits (-160.0 20.0)
           (-70.0 70.0)
           (-70.0 60.0)
  end
  begin
     id 8 
     name rtibia
     direction -0.34202 -0.939693 0   
     length 7.21712   
     axis 0 0 -20   XYZ
    dof rx
    limits (-10.0 170.0)
 end
 begin
     id 9 
     name rfoot
     direction -0.0825378 -0.226771 0.970444   
     length 1.89724  
     axis -90 -7.62852e-016 -20   XYZ
    dof rx rz
    limits (-45.0 90.0)
           (-20.0 70.0)
  end
  begin
     id 10 
     name rtoes
     direction -1.53515e-011 -4.22016e-011 1   
     length 0.955868   
     axis -90 -7.62852e-016 -20   XYZ
    dof rx
    limits (-90.0 20.0)
  end
  begin
     id 11 
     name lowerback
     direction -0.0104711 0.984802 -0.173368   
     length 1.84931   
     axis 0 0 0   XYZ
    dof rx ry rz
    limits (-20.0 45.0)
           (-30.0 30.0)
           (-30.0 30.0)
  end
  begin
     id 12 
     name upperback
     direction -0.00286433 0.999996 -0.000382853   
     length 1.85768   
     axis 0 0 0   XYZ
    dof rx ry rz
    limits (-20.0 45.0)
           (-30.0 30.0)
           (-30.0 30.0)
  end
  begin
     id 13 
     name thorax
     direction 0.00167534 0.996793 0.0800069   
     length 1.92   
     axis 0 0 0   XYZ
    dof rx ry rz
    limits (-20.0 45.0)
           (-30.0 30.0)
           (-30.0 30.0)
  end
  begin
     id 14 
     name lowerneck
     direction -0.0672491 0.995415 0.068018   
     length 1.58923   
     axis 0 0 0   XYZ
    dof rx ry rz
    limits (-20.0 45.0)
           (-30.0 30.0)
           (-30.0 30.0)
  end
  begin
     id 15 
     name upperneck
     direction 0.0958019 0.982476 -0.159884   
     length 1.60189   
     axis 0 0 0   XYZ
    dof rx ry rz
    limits (-20.0 45.0)
           (-30.0 30.0)
           (-30.0 30.0)
  end
  begin
     id 16
     name head
     direction 0.032989 0.997338 -0.0650226  
     length 1.61681  
     axis 0 0 0   XYZ
    dof rx ry rz
    limits (-20.0 45.0)
           (-30.0 30.0)
           (-30.0 30.0)
  end
  begin
     id 17 
     name lclavicle
     direction 0.954279 0.298875 -0.00496069  
     length 2.99449  
     axis 0 0 0   XYZ
    dof ry rz
    limits (-20.0 10.0)
           (0.0 20.0)
  end
  begin
     id 18 
     name lhumerus
     direction 1 -4.48985e-011 -4.2057e-027   
     length 4.79185   
     axis 180 -30 -90   XYZ
    dof rx ry rz
    limits (-60.0 90.0)
           (-90.0 90.0)
           (-90.0 90.0)
  end
  begin
     id 19
     name lradius
     direction 1 -4.48945e-011 1.15441e-028   
     length 2.65553   
     axis 180 -30 -90   XYZ
    dof rx
    limits (-10.0 170.0)
  end
  begin
     id 20
     name lwrist
     direction 1 -4.4899e-011 4.8894e-028   
     length 1.32777   
     axis -2.56392e-016 90 90   XYZ
    dof ry
    limits (-180.0 0.0)
 end
  begin
     id 21 
     name lhand
     direction 1 -4.48908e-011 9.7788e-028   
     length 0.743904   
     axis -6.23971e-016 90 90   XYZ
    dof rx rz
    limits (-90.0 90.0)
           (-45.0 45.0)
  end
  begin
     id 22 
     name lfingers
     direction 1 -4.49068e-011 1.95576e-027   
     length 0.599754   
     axis -1.24794e-015 90 90   XYZ
    dof rx
    limits (0.0 90.0)
  end
  begin
     id 23
     name lthumb
     direction 0.707107 -6.34883e-011 0.707107   
     length 0.861131   
     axis -90 45 2.85299e-015   XYZ
    dof rx rz
    limits (-45.0 45.0)
           (-45.0 45.0)
  end
  begin
     id 24 
     name rclavicle
     direction -0.957921 0.286916 0.00811568   
     length 3.06817  
     axis 0 0 0   XYZ 
    dof ry rz
    limits (-10.0 20.0)
           (-20.0 0.0)
  end
  begin
     id 25 
     name rhumerus
     direction -1 -4.48971e-011 -3.07942e-027  
     length 4.77254   
     axis 180 30 90   XYZ
    dof rx ry rz
    limits (-90.0 60.0)
           (-90.0 90.0)
           (-90.0 90.0)
  end
  begin
     id 26 
     name rradius
     direction -1 -4.48957e-011 -9.6815e-028   
     length 2.75995   
     axis 180 30 90   XYZ
    dof rx
    limits (-10.0 170.0)
  end
  begin
     id 27 
     name rwrist
     direction -1 -4.48979e-011 4.8894e-028   
     length 1.37997   
     axis -2.56392e-016 -90 -90   XYZ
    dof ry
    limits (-180.0 0.0)
  end
  begin
     id 28
     name rhand
     direction -1 -4.48906e-011 9.7788e-028   
     length 0.701619   
     axis -6.23971e-016 -90 -90   XYZ
    dof rx rz
    limits (-90.0 90.0)
           (-45.0 45.0)
  end
  begin
     id 29
     name rfingers
     direction -1 -4.49018e-011 1.95576e-027   
     length 0.565663   
     axis -1.24794e-015 -90 -90   XYZ
    dof rx
    limits (0.0 90.0)
  end
  begin
     id 30
     name rthumb
     direction -0.707107 -6.34881e-011 0.707107   
     length 0.812183   
     axis -90 -45 -2.85299e-015   XYZ
    dof rx rz
    limits (-45.0 45.0)
           (-45.0 45.0)
  end
:hierarchy
  begin
    root lhipjoint rhipjoint lowerback
    lhipjoint lfemur
    lfemur ltibia
    ltibia lfoot
    lfoot ltoes
    rhipjoint rfemur
    rfemur rtibia
    rtibia rfoot
    rfoot rtoes
    lowerback upperback
    upperback thorax
    thorax lowerneck lclavicle rclavicle
    lowerneck upperneck
    upperneck head
    lclavicle lhumerus
    lhumerus lradius
    lradius lwrist
    lwrist lhand lthumb
    lhand lfingers
    rclavicle rhumerus
    rhumerus rradius
    rradius rwrist
    rwrist rhand rthumb
    rhand rfingers
  end

#!OML:ASF F:\VICON\USERDATA\INSTALL\rory3\rory3.ASF
:FULLY-SPECIFIED
:DEGREES
145
root 0.268978 16.1499 0.206038 1.44106 2.02025 -0.462778
lowerback 8.55222 0.350674 -1.18449
upperback -0.501184 0.337189 -0.161435
thorax -5.3294 0.197281 0.454446
lowerneck -12.2787 -6.33115 -11.0711
upperneck 22.7891 -9.05151 10.5796
head 10.2893 -4.02797 4.43976
rclavicle 9.74045e-015 1.76918e-014
rhumerus -45.166 -7.20683 -77.591
rradius 29.0379
rwrist 6.78579
rhand -11.9008 12.5463
rfingers 7.12502
rthumb 14.1526 -16.9516
lclavicle 9.74045e-015 1.76918e-014
lhumerus -44.0598 2.09211 77.8257
lradius 35.5448
lwrist 7.34021
lhand -6.06341 16.6047
lfingers 7.12502
lthumb 19.7714 45.6192
rfemur -1.23767 11.6954 17.7116
rtibia 15.0391
rfoot -11.0769 -15.5358
rtoes -6.39507
lfemur 2.53909 -11.2236 -16.7788
ltibia 5.13297
lfoot -6.39684 8.28316
ltoes -8.51524
146
root 0.269657 16.1494 0.207569 1.38945 2.01371 -0.586928
lowerback 8.53867 0.33868 -1.03995
upperback -0.458539 0.338135 -0.130863
thorax -5.27631 0.193764 0.405065
lowerneck -12.2829 -6.3219 -11.0749
upperneck 22.7534 -9.03764 10.5948
head 10.2764 -4.02043 4.4471
rclavicle -4.11236e-015 -9.74045e-015
rhumerus -45.1413 -7.19488 -77.6014
rradius 29.0525
rwrist 6.76333
rhand -11.9169 12.5649
rfingers 7.12502
rthumb 14.137 -16.9342
lclavicle -4.11236e-015 -9.74045e-015
lhumerus -43.9568 2.13272 77.8257
lradius 35.4139
lwrist 7.35263
lhand -6.19244 16.4684
lfingers 7.12502
lthumb 19.6474 45.4955
rfemur -1.06387 11.7362 17.8663
rtibia 14.8369
rfoot -10.9843 -15.5758
rtoes -6.59865
lfemur 2.30486 -11.2208 -16.6526
ltibia 5.69283
lfoot -6.65719 8.21503
ltoes -8.34822
147
root 0.267971 16.1489 0.207809 1.32702 1.98024 -0.74812
lowerback 8.59389 0.340762 -0.897161
upperback -0.451405 0.357533 -0.0816131
thorax -5.29968 0.200136 0.373232
lowerneck -12.2389 -6.30312 -11.0492
upperneck 22.7296 -9.01228 10.5694
head 10.2533 -4.0108 4.43756
rclavicle -5.61567e-015 -7.95139e-016
rhumerus -45.1815 -7.13507 -77.619
rradius 29.1246
rwrist 6.67261
rhand -11.904 12.5056
rfingers 7.12502
rthumb 14.1495 -16.9926
lclavicle -5.61567e-015 -7.95139e-016
lhumerus -43.9449 2.1381 77.837
lradius 35.3914
lwrist 7.37927
lhand -6.1662 16.3042
lfingers 7.12502
lthumb 19.6726 45.3288
rfemur -0.930245 11.8071 18.0753
rtibia 14.6795
rfoot -10.8766 -15.6258
rtoes -6.91946
lfemur 2.16307 -11.1891 -16.4757
ltibia 6.10079
lfoot -6.8626 8.16041
ltoes -8.1699
148
root 0.266588 16.1479 0.209029 1.28323 1.94842 -0.826249
lowerback 8.62635 0.350114 -0.841453
upperback -0.445714 0.376784 -0.0558092
thorax -5.3121 0.208471 0.366093
lowerneck -12.2181 -6.30697 -11.0402
upperneck 22.716 -9.01565 10.5499
head 10.2434 -4.01439 4.42858
rclavicle 1.46728e-014 1.21259e-014
rhumerus -45.2025 -7.16828 -77.5973
rradius 29.171
rwrist 6.64389
rhand -11.7656 12.3177
rfingers 7.12502
rthumb 14.2829 -17.1711
lclavicle 1.46728e-014 1.21259e-014
lhumerus -43.9528 2.10012 77.8563
lradius 35.4075
lwrist 7.40276
lhand -6.17927 16.0523
lfingers 7.12502
lthumb 19.66 45.0781
rfemur -0.815472 11.8501 18.1774
rtibia 14.5214
rfoot -10.7706 -15.6216
rtoes -6.93878
lfemur 2.00697 -11.1606 -16.391
ltibia 6.50425
lfoot -7.03268 8.10323
ltoes -7.87071
149
root 0.265862 16.1475 0.20906 1.21377 1.9361 -0.945324
lowerback 8.7154 0.352442 -0.740129
upperback -0.448841 0.391989 -0.00991555
thorax -5.36547 0.21396 0.354388
lowerneck -12.2021 -6.31612 -11.0679
upperneck 22.7337 -9.02474 10.5462
head 10.2491 -4.02175 4.43127
rclavicle -4.13721e-015 -1.37161e-014
rhumerus -45.2253 -7.17255 -77.5537
rradius 29.1523
rwrist 6.6299
rhand -11.7293 12.3465
rfingers 7.12502
rthumb 14.3178 -17.1399
lclavicle -4.13721e-015 -1.37161e-014
lhumerus -43.9588 2.16237 77.8434
lradius 35.3711
lwrist 7.32367
lhand -6.17037 15.8914
lfingers 7.12502
lthumb 19.6686 44.9164
rfemur -0.680416 11.9014 18.3345
rtibia 14.4032
rfoot -10.6328 -15.6803
rtoes -7.22985
lfemur 1.92895 -11.1514 -16.2664
ltibia 6.80932
lfoot -7.24199 8.10229
ltoes -8.10276
